<?xml version="1.0" standalone="no"?>
<!DOCTYPE svg PUBLIC "-//W3C//DTD SVG 20010904//EN"
 "http://www.w3.org/TR/2001/REC-SVG-20010904/DTD/svg10.dtd">
<svg version="1.0" xmlns="http://www.w3.org/2000/svg"
 width="500.000000pt" height="500.000000pt" viewBox="0 0 500.000000 500.000000"
 preserveAspectRatio="xMidYMid meet">

<g transform="translate(0.000000,500.000000) scale(0.100000,-0.100000)"
fill="#000000" stroke="none">
<path d="M0 2500 l0 -2500 2500 0 2500 0 0 2500 0 2500 -2500 0 -2500 0 0
-2500z m2700 1989 c735 -75 1377 -571 1634 -1262 265 -710 109 -1485 -409
-2035 -306 -325 -708 -533 -1155 -598 -155 -22 -456 -15 -620 14 -629 114
-1179 545 -1440 1129 -165 372 -214 801 -134 1191 121 588 507 1091 1045 1362
189 95 417 167 604 189 50 6 101 13 115 15 56 8 264 5 360 -5z"/>
<path d="M2305 4460 c-352 -40 -690 -173 -965 -379 -106 -79 -259 -230 -350
-342 -362 -450 -497 -1023 -378 -1604 74 -362 282 -738 550 -990 313 -295 680
-469 1113 -526 143 -19 452 -6 601 24 489 101 918 381 1205 786 478 677 463
1596 -37 2268 -77 103 -278 304 -382 382 -242 182 -538 310 -832 361 -143 24
-400 34 -525 20z m110 -239 c-3 -6 -21 -11 -40 -11 -28 0 -32 -3 -28 -20 4
-14 14 -20 34 -20 16 0 29 -4 29 -10 0 -5 -13 -10 -30 -10 -25 0 -30 -4 -30
-25 0 -22 4 -25 40 -25 22 0 40 -4 40 -10 0 -5 -22 -10 -50 -10 -45 0 -50 2
-50 23 0 12 -3 45 -6 74 l-7 52 49 3 c56 3 58 3 49 -11z m393 -12 c36 -12 48
-39 32 -69 -8 -15 -21 -20 -50 -20 -33 0 -40 -3 -40 -19 0 -19 -17 -38 -26
-29 -4 4 12 110 21 136 5 15 23 15 63 1z m-642 -25 c18 -14 17 -15 -18 -9 -65
10 -102 -51 -58 -95 25 -25 41 -25 73 0 14 11 28 16 31 11 9 -13 -42 -51 -69
-51 -39 0 -75 37 -75 76 0 65 69 106 116 68z m901 -39 c45 -19 38 -30 -10 -17
-39 11 -47 8 -47 -19 0 -10 10 -19 25 -23 14 -4 25 -11 25 -17 0 -6 -9 -8 -22
-4 -37 12 -40 11 -48 -11 -7 -19 -3 -23 31 -33 22 -7 37 -16 34 -21 -6 -10
-95 18 -95 29 0 10 31 114 37 124 7 11 30 8 70 -8z m-1167 -90 c52 -53 63 -80
22 -54 -30 19 -82 -5 -82 -37 0 -13 -4 -24 -10 -24 -11 0 -14 152 -3 163 11
12 18 8 73 -48z m1403 -13 c23 -20 22 -48 -3 -69 -13 -11 -20 -30 -20 -51 0
-20 -4 -31 -10 -27 -5 3 -10 21 -10 40 0 21 -6 35 -16 39 -25 10 -32 7 -39
-14 -3 -11 -13 -20 -21 -20 -10 0 -5 19 21 70 33 66 37 70 58 59 12 -6 30 -18
40 -27z m-1677 -120 c15 -26 28 -49 30 -51 1 -1 13 4 26 13 25 17 38 20 38 8
0 -9 -53 -42 -68 -42 -13 0 -82 112 -76 122 8 13 20 1 50 -50z m1889 -4 c33
-22 45 -38 27 -38 -5 0 -17 7 -28 15 -25 19 -43 19 -51 -1 -4 -11 2 -23 18
-35 13 -10 20 -21 16 -25 -4 -4 -15 0 -25 9 -24 22 -38 21 -46 0 -5 -12 3 -26
26 -45 21 -17 27 -28 18 -28 -9 0 -31 13 -50 28 l-34 29 40 56 c21 31 42 57
47 57 4 0 23 -10 42 -22z m-2079 -124 l40 -47 27 18 c15 10 30 15 33 12 7 -7
-46 -56 -61 -57 -10 0 -95 102 -95 114 0 16 19 2 56 -40z m2244 -16 c-1 -19
-90 -109 -101 -102 -5 3 12 30 38 59 49 55 63 65 63 43z m-2310 -150 c0 -6
-11 -8 -25 -6 -35 7 -68 -30 -59 -66 3 -15 2 -26 -4 -26 -11 0 -72 141 -66
152 6 10 154 -42 154 -54z m2459 6 c34 -43 23 -94 -20 -94 -9 0 -22 -14 -29
-31 -17 -39 -33 -23 -18 18 9 25 9 35 -2 48 -12 14 -15 14 -35 -5 -13 -13 -25
-17 -29 -12 -6 10 90 102 106 102 3 0 16 -12 27 -26z m-2112 -13 c280 -133
459 -401 623 -934 37 -120 41 -144 32 -173 -5 -19 -7 -34 -2 -34 4 0 28 28 54
63 82 112 233 212 381 252 82 22 253 30 345 16 352 -55 566 -310 522 -622 -35
-242 -196 -375 -480 -396 l-84 -6 4 -176 c3 -185 8 -208 53 -230 14 -7 -20
-10 -120 -10 -100 0 -135 3 -122 10 37 21 47 63 47 191 l0 123 -58 12 c-32 6
-81 21 -108 34 -47 22 -48 23 -21 27 16 2 46 -4 68 -12 22 -9 57 -20 79 -25
l40 -9 0 289 0 289 -44 0 c-43 0 -199 24 -228 35 -11 5 -33 -34 -89 -157 -40
-89 -97 -199 -125 -244 l-51 -82 31 -58 c71 -132 203 -226 350 -247 42 -6 76
-15 76 -19 0 -13 -81 -9 -143 7 -142 37 -261 126 -354 264 -1 2 -20 -12 -41
-31 -98 -89 -240 -138 -396 -138 -180 0 -281 50 -347 172 -31 59 -34 69 -33
153 0 67 6 103 21 142 29 72 83 142 137 178 25 17 46 33 46 36 0 19 -143 405
-153 411 -7 4 -49 8 -95 8 -133 0 -249 -48 -302 -126 -36 -54 -40 -161 -8
-224 28 -55 75 -88 139 -96 57 -8 66 -24 14 -24 -175 0 -264 224 -150 374 18
23 55 50 103 73 71 35 83 38 184 42 59 2 108 7 108 11 0 13 -167 475 -183 506
-9 18 -30 46 -47 63 l-32 31 151 0 150 0 -24 -24 c-38 -38 -39 -66 -10 -168
31 -106 142 -428 153 -443 7 -10 123 -57 129 -52 4 5 133 419 133 429 0 18
-101 210 -143 272 -57 84 -163 186 -230 221 -43 23 -53 32 -45 42 15 18 25 17
95 -16z m-582 -162 c26 -33 44 -63 41 -67 -4 -3 -27 0 -53 6 -25 7 -48 10 -51
8 -2 -3 9 -21 27 -41 37 -42 40 -59 9 -52 -13 3 -49 11 -80 18 -32 7 -58 16
-58 21 0 11 27 10 73 -3 22 -6 41 -8 44 -6 2 3 -10 21 -26 40 -30 33 -39 57
-23 57 4 0 28 -7 55 -15 26 -8 47 -11 47 -7 -1 4 -14 23 -30 42 -26 30 -39 60
-26 60 3 0 26 -27 51 -61z m1751 -31 c22 -67 67 -124 120 -151 l47 -24 -33 -7
c-68 -13 -150 -137 -150 -225 0 -36 -17 -15 -23 29 -12 95 -90 190 -158 193
l-33 2 -88 -283 c-48 -155 -95 -293 -104 -305 l-16 -22 7 25 c4 14 29 93 55
175 86 270 122 398 122 432 0 36 -23 70 -57 84 -12 4 26 8 95 8 l115 0 -37
-19 c-35 -19 -83 -69 -74 -77 2 -3 23 5 45 17 52 26 96 86 117 159 25 85 27
89 31 61 2 -14 11 -46 19 -72z m1114 -25 c0 -13 -82 -133 -91 -133 -11 0 -11
11 1 30 13 21 -19 70 -47 70 -43 0 -33 19 14 25 27 3 55 8 63 9 29 7 60 6 60
-1z m-3000 -188 c0 -3 -16 -42 -35 -88 -85 -206 -119 -379 -119 -612 0 -385
104 -708 328 -1009 76 -103 228 -256 329 -331 73 -54 91 -75 66 -75 -6 0 -38
21 -72 47 -340 259 -558 602 -649 1023 -19 92 -22 134 -23 335 0 188 3 246 19
315 36 169 119 400 142 400 8 0 14 -2 14 -5z m3068 -108 c78 -201 112 -390
112 -619 0 -369 -108 -694 -333 -998 -102 -137 -264 -293 -389 -375 -23 -14
-28 -15 -28 -3 0 9 30 38 68 65 332 248 566 633 639 1053 24 138 22 399 -5
551 -22 120 -67 275 -108 368 -22 50 -24 78 -4 66 5 -3 26 -51 48 -108z
m-2362 -2026 c-14 -28 -26 -53 -26 -55 0 -3 14 -13 31 -21 44 -23 27 -32 -21
-10 -22 10 -40 20 -40 22 0 7 52 108 63 122 22 27 18 -8 -7 -58z m1601 -9 c29
-25 50 -49 47 -54 -3 -5 -14 -2 -24 7 -17 15 -21 15 -49 0 -22 -11 -31 -23
-31 -40 0 -14 -4 -25 -9 -25 -11 0 -25 145 -16 160 8 13 17 8 82 -48z m-1377
-25 c0 -25 -46 -132 -56 -128 -10 4 -10 6 18 84 19 53 38 75 38 44z m1150 -73
c20 -58 21 -89 4 -71 -12 11 -53 135 -47 141 12 11 22 -5 43 -70z m-1005 14
c3 -13 9 -41 13 -62 l8 -40 38 52 c21 29 42 50 47 46 8 -5 -12 -38 -71 -114
-10 -14 -22 -22 -25 -18 -7 7 -34 121 -35 146 0 21 19 13 25 -10z m825 -8 c22
-22 24 -29 10 -50 -6 -10 -3 -21 12 -37 31 -33 13 -41 -20 -9 -38 35 -66 27
-56 -16 4 -23 3 -29 -7 -26 -14 5 -42 115 -35 134 4 11 25 18 64 23 6 0 21 -8
32 -19z m-502 -32 c15 -15 16 -55 1 -63 -6 -4 -8 -12 -6 -19 15 -41 17 -56 7
-56 -6 0 -16 14 -21 30 -8 22 -17 30 -35 30 -20 0 -24 -5 -24 -30 0 -16 -4
-30 -10 -30 -11 0 -13 91 -4 128 5 18 13 22 43 22 20 0 42 -5 49 -12z m255
-59 c38 -70 42 -105 7 -61 -24 29 -55 28 -84 -3 -13 -13 -25 -22 -28 -20 -5 5
35 126 48 147 10 16 20 6 57 -63z"/>
<path d="M2767 4194 c-4 -4 -7 -18 -7 -31 0 -19 5 -23 30 -23 25 0 30 4 30 25
0 14 -4 25 -9 25 -5 0 -16 2 -23 5 -8 3 -17 2 -21 -1z"/>
<path d="M1847 4064 c-4 -4 -7 -18 -7 -31 0 -21 3 -23 23 -17 32 10 33 12 11
35 -11 11 -23 16 -27 13z"/>
<path d="M3240 4030 c-6 -11 -9 -24 -6 -29 10 -16 45 -19 56 -5 13 15 7 30
-20 44 -15 8 -21 6 -30 -10z"/>
<path d="M1253 3632 c15 -37 15 -36 32 -22 22 18 19 27 -14 38 -30 10 -30 10
-18 -16z"/>
<path d="M3782 3618 c-17 -17 -15 -36 6 -46 23 -12 42 -4 42 17 0 16 -18 41
-30 41 -3 0 -11 -5 -18 -12z"/>
<path d="M1991 2869 c-34 -110 -61 -202 -59 -204 8 -9 292 -125 295 -121 4 4
-139 444 -162 498 -11 27 -15 16 -74 -173z"/>
<path d="M2925 2793 c-107 -14 -246 -79 -328 -152 -28 -25 -73 -80 -99 -121
l-49 -74 88 -34 c132 -50 135 -50 156 -7 51 108 160 212 285 272 64 30 86 36
143 36 92 0 146 -31 183 -105 14 -28 26 -65 26 -80 0 -72 -66 -148 -166 -189
l-54 -23 0 -253 0 -253 33 0 c18 0 59 5 91 11 159 29 248 114 291 276 19 71
21 239 5 308 -65 265 -316 426 -605 388z"/>
<path d="M1792 2678 c3 -7 18 -48 34 -91 l29 -77 22 67 c13 36 21 68 19 70 -2
2 -27 13 -56 24 -37 14 -51 16 -48 7z"/>
<path d="M3023 2671 c-68 -23 -145 -75 -209 -140 -60 -62 -121 -158 -108 -171
11 -11 173 -40 225 -40 33 0 39 3 39 20 0 28 -26 77 -47 89 -13 7 22 10 122
10 129 0 138 -1 113 -15 -26 -13 -47 -58 -35 -70 10 -10 111 42 139 70 58 59
58 138 1 207 -51 60 -139 75 -240 40z"/>
<path d="M1915 2628 c-2 -7 -23 -74 -46 -148 -23 -74 -44 -141 -47 -148 -3 -9
2 -10 21 -3 14 5 52 13 85 17 117 13 228 -42 276 -137 39 -78 35 -122 -13
-170 -32 -33 -45 -39 -79 -39 -59 0 -97 35 -97 88 0 47 24 78 65 87 30 7 90
-17 90 -35 0 -6 7 -10 15 -10 24 0 18 42 -14 92 -39 62 -118 101 -205 102 -75
1 -156 -21 -156 -41 0 -10 -6 -13 -16 -9 -23 9 -94 -48 -133 -104 -43 -63 -62
-124 -64 -200 -3 -91 18 -152 69 -209 63 -70 142 -103 264 -109 160 -8 302 40
409 135 l42 38 -21 44 c-12 24 -31 80 -42 125 -18 69 -20 100 -15 215 5 132 5
136 -24 210 -17 42 -36 81 -42 87 -10 10 -300 134 -313 134 -3 0 -7 -6 -9 -12z"/>
<path d="M2351 2453 c-1 -6 -4 -20 -7 -30 -5 -17 -5 -17 6 0 6 10 9 23 6 30
-3 9 -5 9 -5 0z"/>
<path d="M2426 2378 c-20 -54 -33 -115 -41 -198 -10 -99 22 -299 46 -285 18
12 92 148 160 297 38 83 68 152 66 153 -1 1 -45 16 -97 35 -52 18 -100 35
-106 37 -7 2 -19 -15 -28 -39z"/>
<path d="M3932 3381 c-30 -6 -32 -8 -19 -25 15 -21 31 -16 47 15 6 10 9 18 8
18 -2 -1 -18 -4 -36 -8z"/>
<path d="M3244 1074 c3 -9 6 -22 6 -30 0 -12 4 -12 21 -4 20 11 20 12 3 31
-21 23 -38 25 -30 3z"/>
<path d="M2844 972 c-16 -2 -20 -8 -16 -28 6 -35 62 -30 62 6 0 20 -15 28 -46
22z"/>
<path d="M2330 915 c0 -23 4 -26 28 -23 19 2 27 9 27 23 0 14 -8 21 -27 23
-24 3 -28 0 -28 -23z"/>
<path d="M2596 898 c-9 -34 -8 -38 12 -38 27 0 32 9 20 36 -14 30 -24 30 -32
2z"/>
</g>
</svg>
